<mxfile host="app.diagrams.net" modified="2023-09-11T05:02:39.269Z" agent="Mozilla/5.0 (Windows NT 10.0; Win64; x64) AppleWebKit/537.36 (KHTML, like Gecko) Chrome/115.0.0.0 Safari/537.36 OPR/101.0.0.0" etag="NEsXa26M98APSkYiur0w" version="21.7.4" type="github">
  <diagram name="Page-1" id="lScZu5cPEZeXSfzCihXA">
    <mxGraphModel dx="2011" dy="638" grid="1" gridSize="10" guides="1" tooltips="1" connect="1" arrows="1" fold="1" page="1" pageScale="1" pageWidth="850" pageHeight="1100" math="0" shadow="0">
      <root>
        <mxCell id="0" />
        <mxCell id="1" parent="0" />
        <mxCell id="vGmaRJxQzVd5IO2YTOum-14" style="rounded=0;orthogonalLoop=1;jettySize=auto;html=1;exitX=1;exitY=0.3333333333333333;exitDx=0;exitDy=0;exitPerimeter=0;entryX=0;entryY=0.5;entryDx=0;entryDy=0;" edge="1" parent="1" source="vGmaRJxQzVd5IO2YTOum-1" target="vGmaRJxQzVd5IO2YTOum-9">
          <mxGeometry relative="1" as="geometry" />
        </mxCell>
        <mxCell id="vGmaRJxQzVd5IO2YTOum-15" style="edgeStyle=none;rounded=0;orthogonalLoop=1;jettySize=auto;html=1;exitX=1;exitY=0.3333333333333333;exitDx=0;exitDy=0;exitPerimeter=0;entryX=0;entryY=0.5;entryDx=0;entryDy=0;" edge="1" parent="1" source="vGmaRJxQzVd5IO2YTOum-1" target="vGmaRJxQzVd5IO2YTOum-12">
          <mxGeometry relative="1" as="geometry" />
        </mxCell>
        <mxCell id="vGmaRJxQzVd5IO2YTOum-17" style="edgeStyle=none;rounded=0;orthogonalLoop=1;jettySize=auto;html=1;exitX=1;exitY=0.3333333333333333;exitDx=0;exitDy=0;exitPerimeter=0;" edge="1" parent="1" source="vGmaRJxQzVd5IO2YTOum-1" target="vGmaRJxQzVd5IO2YTOum-16">
          <mxGeometry relative="1" as="geometry" />
        </mxCell>
        <mxCell id="vGmaRJxQzVd5IO2YTOum-1" value="Guest&lt;br&gt;" style="shape=umlActor;verticalLabelPosition=bottom;verticalAlign=top;html=1;outlineConnect=0;" vertex="1" parent="1">
          <mxGeometry x="40" y="90" width="40" height="70" as="geometry" />
        </mxCell>
        <mxCell id="vGmaRJxQzVd5IO2YTOum-18" style="edgeStyle=none;rounded=0;orthogonalLoop=1;jettySize=auto;html=1;exitX=1;exitY=0.3333333333333333;exitDx=0;exitDy=0;exitPerimeter=0;entryX=0.053;entryY=0.2;entryDx=0;entryDy=0;entryPerimeter=0;" edge="1" parent="1" source="vGmaRJxQzVd5IO2YTOum-2" target="vGmaRJxQzVd5IO2YTOum-16">
          <mxGeometry relative="1" as="geometry" />
        </mxCell>
        <mxCell id="vGmaRJxQzVd5IO2YTOum-2" value="User" style="shape=umlActor;verticalLabelPosition=bottom;verticalAlign=top;html=1;outlineConnect=0;" vertex="1" parent="1">
          <mxGeometry x="40" y="290" width="40" height="70" as="geometry" />
        </mxCell>
        <mxCell id="vGmaRJxQzVd5IO2YTOum-21" style="edgeStyle=none;rounded=0;orthogonalLoop=1;jettySize=auto;html=1;exitX=1;exitY=0.3333333333333333;exitDx=0;exitDy=0;exitPerimeter=0;entryX=0;entryY=0.3333333333333333;entryDx=0;entryDy=0;entryPerimeter=0;endArrow=blockThin;endFill=0;" edge="1" parent="1" source="vGmaRJxQzVd5IO2YTOum-4" target="vGmaRJxQzVd5IO2YTOum-2">
          <mxGeometry relative="1" as="geometry" />
        </mxCell>
        <mxCell id="vGmaRJxQzVd5IO2YTOum-4" value="Admin" style="shape=umlActor;verticalLabelPosition=bottom;verticalAlign=top;html=1;outlineConnect=0;" vertex="1" parent="1">
          <mxGeometry x="-40" y="290" width="40" height="70" as="geometry" />
        </mxCell>
        <mxCell id="vGmaRJxQzVd5IO2YTOum-8" value="Website" style="swimlane;whiteSpace=wrap;html=1;fillColor=default;" vertex="1" parent="1">
          <mxGeometry x="130" y="10" width="690" height="700" as="geometry" />
        </mxCell>
        <mxCell id="vGmaRJxQzVd5IO2YTOum-58" style="edgeStyle=none;rounded=0;orthogonalLoop=1;jettySize=auto;html=1;exitX=1;exitY=0.5;exitDx=0;exitDy=0;entryX=0;entryY=0.5;entryDx=0;entryDy=0;endArrow=none;endFill=0;" edge="1" parent="vGmaRJxQzVd5IO2YTOum-8" source="vGmaRJxQzVd5IO2YTOum-9" target="vGmaRJxQzVd5IO2YTOum-22">
          <mxGeometry relative="1" as="geometry" />
        </mxCell>
        <mxCell id="vGmaRJxQzVd5IO2YTOum-9" value="Login" style="ellipse;whiteSpace=wrap;html=1;" vertex="1" parent="vGmaRJxQzVd5IO2YTOum-8">
          <mxGeometry x="35" y="60" width="95" height="50" as="geometry" />
        </mxCell>
        <mxCell id="vGmaRJxQzVd5IO2YTOum-59" style="edgeStyle=none;rounded=0;orthogonalLoop=1;jettySize=auto;html=1;exitX=1;exitY=0.5;exitDx=0;exitDy=0;entryX=0;entryY=0.5;entryDx=0;entryDy=0;endArrow=none;endFill=0;" edge="1" parent="vGmaRJxQzVd5IO2YTOum-8" source="vGmaRJxQzVd5IO2YTOum-12" target="vGmaRJxQzVd5IO2YTOum-22">
          <mxGeometry relative="1" as="geometry" />
        </mxCell>
        <mxCell id="vGmaRJxQzVd5IO2YTOum-12" value="Register" style="ellipse;whiteSpace=wrap;html=1;" vertex="1" parent="vGmaRJxQzVd5IO2YTOum-8">
          <mxGeometry x="35" y="120" width="95" height="50" as="geometry" />
        </mxCell>
        <mxCell id="vGmaRJxQzVd5IO2YTOum-16" value="Search item" style="ellipse;whiteSpace=wrap;html=1;" vertex="1" parent="vGmaRJxQzVd5IO2YTOum-8">
          <mxGeometry x="35" y="300" width="95" height="50" as="geometry" />
        </mxCell>
        <mxCell id="vGmaRJxQzVd5IO2YTOum-22" value="Check&amp;nbsp; information" style="ellipse;whiteSpace=wrap;html=1;" vertex="1" parent="vGmaRJxQzVd5IO2YTOum-8">
          <mxGeometry x="250" y="60" width="95" height="50" as="geometry" />
        </mxCell>
        <mxCell id="vGmaRJxQzVd5IO2YTOum-23" value="Return error" style="ellipse;whiteSpace=wrap;html=1;" vertex="1" parent="vGmaRJxQzVd5IO2YTOum-8">
          <mxGeometry x="430" y="60" width="95" height="50" as="geometry" />
        </mxCell>
        <mxCell id="vGmaRJxQzVd5IO2YTOum-56" value="" style="endArrow=open;rounded=0;entryX=1;entryY=0.5;entryDx=0;entryDy=0;html=1;dashed=1;exitX=0;exitY=0.5;exitDx=0;exitDy=0;endFill=0;" edge="1" parent="vGmaRJxQzVd5IO2YTOum-8" source="vGmaRJxQzVd5IO2YTOum-23" target="vGmaRJxQzVd5IO2YTOum-22">
          <mxGeometry relative="1" as="geometry">
            <mxPoint x="240" y="140" as="sourcePoint" />
            <mxPoint x="140" y="155" as="targetPoint" />
          </mxGeometry>
        </mxCell>
        <mxCell id="vGmaRJxQzVd5IO2YTOum-57" value="&amp;lt;&amp;lt;extend&amp;gt;&amp;gt;" style="edgeLabel;resizable=0;html=1;align=center;verticalAlign=middle;" connectable="0" vertex="1" parent="vGmaRJxQzVd5IO2YTOum-56">
          <mxGeometry relative="1" as="geometry" />
        </mxCell>
        <mxCell id="vGmaRJxQzVd5IO2YTOum-60" value="Return error" style="ellipse;whiteSpace=wrap;html=1;" vertex="1" parent="vGmaRJxQzVd5IO2YTOum-8">
          <mxGeometry x="250" y="120" width="95" height="50" as="geometry" />
        </mxCell>
        <mxCell id="vGmaRJxQzVd5IO2YTOum-32" value="Server" style="shape=umlActor;verticalLabelPosition=bottom;verticalAlign=top;html=1;outlineConnect=0;direction=east;" vertex="1" parent="1">
          <mxGeometry x="880" y="290" width="40" height="70" as="geometry" />
        </mxCell>
      </root>
    </mxGraphModel>
  </diagram>
</mxfile>
